<?xml version="1.0" encoding="UTF-8" standalone="no"?><!DOCTYPE svg PUBLIC "-//W3C//DTD SVG 1.1//EN" "http://www.w3.org/Graphics/SVG/1.1/DTD/svg11.dtd"><svg width="100%" height="100%" viewBox="0 0 512 512" version="1.1" xmlns="http://www.w3.org/2000/svg" xmlns:xlink="http://www.w3.org/1999/xlink" xml:space="preserve" xmlns:serif="http://www.serif.com/" style="fill-rule:evenodd;clip-rule:evenodd;stroke-linejoin:round;stroke-miterlimit:2;"><g><path d="M283.588,198.295c-0,31.021 -25.148,56.018 -56.019,56.018c-31.021,0 -56.019,-25.148 -56.019,-56.018c0,-31.022 25.148,-56.019 56.019,-56.019c31.021,-0 56.019,25.148 56.019,56.019" style="fill:#737577;fill-opacity:0.15;fill-rule:nonzero;"/><path d="M364.905,181.73c0,15.089 -12.227,27.317 -27.346,27.317c-15.089,-0 -27.317,-12.228 -27.317,-27.317c-0,-15.089 12.228,-27.317 27.317,-27.317c15.089,0 27.346,12.228 27.346,27.317m-15.058,98.786c-0,19.275 -15.631,34.936 -34.937,34.936c-19.275,0 -34.936,-15.631 -34.936,-34.936c-0,-19.276 15.631,-34.937 34.936,-34.937c19.275,0 34.937,15.631 34.937,34.937m-195.765,159.322c-0,24.305 -19.697,43.972 -43.972,43.972c-24.305,-0 -43.972,-19.697 -43.972,-43.972c0,-24.305 19.697,-43.972 43.972,-43.972c24.305,0 43.972,19.697 43.972,43.972m-75.294,-302.381c-0,-12.589 10.18,-22.769 22.769,-22.769c12.589,0 22.769,10.18 22.769,22.769c-0,12.589 -10.18,22.769 -22.769,22.769c-12.589,-0 -22.769,-10.18 -22.769,-22.769m69.27,196.969c0,8.373 -6.806,15.18 -15.179,15.18c-8.373,-0 -15.179,-6.807 -15.179,-15.18c-0,-8.402 6.806,-15.179 15.179,-15.179c8.373,0 15.179,6.807 15.179,15.179m337.318,144.565c0,11.746 -9.517,21.263 -21.263,21.263c-11.746,0 -21.263,-9.517 -21.263,-21.263c-0,-11.746 9.517,-21.263 21.263,-21.263c11.746,0 21.263,9.517 21.263,21.263" style="fill:#858789;fill-opacity:0.15;fill-rule:nonzero;"/><path d="M304.67,349.485c0,18.432 -14.938,33.431 -33.43,33.431c-18.432,-0 -33.431,-14.939 -33.431,-33.431c-0,-18.432 14.938,-33.43 33.431,-33.43c18.432,-0 33.43,14.968 33.43,33.43m90.353,66.259c0,21.805 -17.679,39.454 -39.454,39.454c-21.805,0 -39.454,-17.679 -39.454,-39.454c-0,-21.805 17.679,-39.454 39.454,-39.454c21.805,-0 39.454,17.679 39.454,39.454m-256,-340.329c0,13.402 -10.872,24.274 -24.305,24.274c-13.402,0 -24.275,-10.872 -24.275,-24.274c0,-13.403 10.873,-24.275 24.275,-24.275c13.433,-0 24.305,10.872 24.305,24.275m-69.873,406.588c0,11.746 -9.517,21.263 -21.263,21.263c-11.746,-0 -21.263,-9.517 -21.263,-21.263c-0,-11.746 9.517,-21.263 21.263,-21.263c11.746,-0 21.263,9.517 21.263,21.263m271.661,-362.617c0,12.491 -10.278,22.769 -22.769,22.769c-12.589,0 -22.769,-10.179 -22.769,-22.769c0,-12.589 10.18,-22.769 22.769,-22.769c12.59,0 22.769,10.18 22.769,22.769" style="fill:#4d4c4e;fill-opacity:0.15;fill-rule:nonzero;"/><path d="M196.247,119.386c-0,17.589 -14.276,31.925 -31.925,31.925c-17.589,0 -31.925,-14.276 -31.925,-31.925c0,-17.618 14.276,-31.924 31.925,-31.924c17.619,-0 31.925,14.275 31.925,31.924m-39.153,68.367c-0,11.746 -9.518,21.263 -21.263,21.263c-11.746,0 -21.263,-9.517 -21.263,-21.263c-0,-11.745 9.517,-21.263 21.263,-21.263c11.745,0 21.263,9.518 21.263,21.263m328.282,-125.891c0,12.589 -10.18,22.769 -22.769,22.769c-12.589,-0 -22.769,-10.18 -22.769,-22.769c0,-12.59 10.18,-22.769 22.769,-22.769c12.589,-0 22.769,10.179 22.769,22.769" style="fill:#08c;fill-opacity:0.15;fill-rule:nonzero;"/><path d="M437.188,114.869c-0,23.491 -19.035,42.466 -42.466,42.466c-23.492,-0 -42.466,-19.035 -42.466,-42.466c0,-23.462 19.034,-42.466 42.466,-42.466c23.462,-0 42.466,19.034 42.466,42.466" style="fill:#08c;fill-opacity:0.12;fill-rule:nonzero;"/><path d="M223.352,298.285c0,16.776 -13.583,30.419 -30.418,30.419c-16.776,0 -30.419,-13.583 -30.419,-30.419c-0,-16.775 13.583,-30.419 30.419,-30.419c16.775,0 30.418,13.583 30.418,30.419m-27.105,78.306c-0,15.089 -12.228,27.317 -27.317,27.317c-15.089,-0 -27.317,-12.228 -27.317,-27.317c0,-15.089 12.228,-27.317 27.317,-27.317c15.089,0 27.317,12.228 27.317,27.317m222.87,-36.141c0,15.089 -12.228,27.317 -27.317,27.317c-15.088,-0 -27.316,-12.228 -27.316,-27.317c-0,-15.089 12.228,-27.317 27.316,-27.317c15.089,0 27.317,12.228 27.317,27.317m42.165,75.294c-0,13.402 -10.873,24.275 -24.275,24.275c-13.402,-0 -24.275,-10.873 -24.275,-24.275c0,-13.402 10.873,-24.275 24.275,-24.275c13.402,0 24.275,10.873 24.275,24.275m-386.711,-350.871c0,8.373 -6.806,15.18 -15.179,15.18c-8.373,-0 -15.179,-6.807 -15.179,-15.18c-0,-8.372 6.806,-15.179 15.179,-15.179c8.373,0 15.179,6.807 15.179,15.179" style="fill:#08c;fill-opacity:0.25;fill-rule:nonzero;"/><path d="M69.15,23.913c0,8.373 -6.806,15.18 -15.179,15.18c-8.373,-0 -15.179,-6.807 -15.179,-15.18c-0,-8.372 6.806,-15.179 15.179,-15.179c8.373,0 15.179,6.807 15.179,15.179" style="fill:#08c;fill-opacity:0.3;fill-rule:nonzero;"/><path d="M117.941,364.544c-0,10.059 -8.162,18.221 -18.221,18.221c-10.06,0 -18.222,-8.162 -18.222,-18.221c0,-10.059 8.162,-18.221 18.222,-18.221c10.059,-0 18.221,8.162 18.221,18.221" style="fill:#08c;fill-opacity:0.15;fill-rule:nonzero;"/></g></svg>