<?xml version="1.0" encoding="UTF-8"?>
<!DOCTYPE svg PUBLIC "-//W3C//DTD SVG 1.1//EN" "http://www.w3.org/Graphics/SVG/1.1/DTD/svg11.dtd">
<svg version="1.1" xmlns="http://www.w3.org/2000/svg" xmlns:xlink="http://www.w3.org/1999/xlink" x="0px" y="0px" width="568" height="176" viewBox="0, 0, 568, 176">
  <g id="Layer 1">
    <path d="M168,68.8 C168,79.1 159.65,87.4 149.4,87.4 C139.1,87.4 130.8,79.05 130.8,68.8 C130.8,58.5 139.15,50.2 149.4,50.2 C159.7,50.2 168,58.55 168,68.8" fill="#737577"/>
    <path d="M195,63.3 C195,68.31 190.94,72.37 185.92,72.37 C180.91,72.37 176.85,68.31 176.85,63.3 C176.85,58.29 180.91,54.23 185.92,54.23 C190.93,54.23 195,58.29 195,63.3" fill="#858789"/>
    <path d="M190,96.1 C190,102.5 184.81,107.7 178.4,107.7 C172,107.7 166.8,102.51 166.8,96.1 C166.8,89.7 171.99,84.5 178.4,84.5 C184.8,84.5 190,89.69 190,96.1" fill="#858789"/>
    <path d="M125,149 C125,157.07 118.46,163.6 110.4,163.6 C102.33,163.6 95.8,157.06 95.8,149 C95.8,140.93 102.34,134.4 110.4,134.4 C118.47,134.4 125,140.94 125,149" fill="#858789"/>
    <path d="M100,48.6 C100,44.42 103.38,41.04 107.56,41.04 C111.74,41.04 115.12,44.42 115.12,48.6 C115.12,52.78 111.74,56.16 107.56,56.16 C103.38,56.16 100,52.78 100,48.6" fill="#858789"/>
    <path d="M123,114 C123,116.78 120.74,119.04 117.96,119.04 C115.18,119.04 112.92,116.78 112.92,114 C112.92,111.21 115.18,108.96 117.96,108.96 C120.74,108.96 123,111.22 123,114" fill="#858789"/>
    <path d="M235,162 C235,165.9 231.84,169.06 227.94,169.06 C224.04,169.06 220.88,165.9 220.88,162 C220.88,158.1 224.04,154.94 227.94,154.94 C231.84,154.94 235,158.1 235,162" fill="#858789"/>
    <path d="M25.2,87.7 L77.4,87.7 C75.5,80.5 66.1,69.9 50.1,68.6 C34.4,69.4 26.7,80.3 25.2,87.7 M5.1,96.5 C5.285,72.1 24.8,51.6 50.1,51.6 C74.1,51.6 93.1,69 94.5,93.3 L94.5,94.198 C94.5,94.559 94.5,95.458 94.316,95.818 C93.764,100.128 89.896,103.008 84.726,103.008 L26.126,103.008 C27.048,107.138 29.076,111.818 32.396,114.908 C36.266,119.228 43.596,122.458 50.096,122.998 C56.736,123.538 64.696,121.918 69.296,118.508 C73.166,114.548 80.696,115.088 83.096,117.969 C85.496,120.489 87.336,125.879 83.096,129.669 C74.056,137.759 63.196,141.569 50.096,141.569 C24.796,141.388 5.296,121.069 5.096,96.669" fill="#4D4C4E"/>
    <path d="M259,61.6 L259,131.7 C259,137.09 254.76,141.41 249.04,141.41 C243.51,141.41 239.08,137.1 239.08,131.7 L239.08,61.6 C239.08,55.85 243.5,51.72 249.04,51.72 C254.76,51.72 259,55.85 259,61.6" fill="#4D4C4E"/>
    <path d="M175,119 C175,125.12 170.04,130.1 163.9,130.1 C157.78,130.1 152.8,125.14 152.8,119 C152.8,112.88 157.76,107.9 163.9,107.9 C170.02,107.9 175,112.87 175,119" fill="#4D4C4E"/>
    <path d="M205,141 C205,148.24 199.13,154.1 191.9,154.1 C184.66,154.1 178.8,148.23 178.8,141 C178.8,133.76 184.67,127.9 191.9,127.9 C199.14,127.9 205,133.77 205,141" fill="#4D4C4E"/>
    <path d="M120,28 C120,32.45 116.39,36.06 111.93,36.06 C107.48,36.06 103.87,32.45 103.87,28 C103.87,23.55 107.48,19.94 111.93,19.94 C116.39,19.94 120,23.55 120,28" fill="#4D4C4E"/>
    <path d="M96.8,163 C96.8,166.9 93.64,170.06 89.74,170.06 C85.84,170.06 82.68,166.9 82.68,163 C82.68,159.1 85.84,155.94 89.74,155.94 C93.64,155.94 96.8,159.1 96.8,163" fill="#4D4C4E"/>
    <path d="M187,42.6 C187,46.78 183.61,50.16 179.44,50.16 C175.26,50.16 171.88,46.78 171.88,42.6 C171.88,38.42 175.26,35.04 179.44,35.04 C183.62,35.04 187,38.42 187,42.6" fill="#4D4C4E"/>
    <path d="M139,42.6 C139,48.44 134.26,53.2 128.4,53.2 C122.56,53.2 117.8,48.46 117.8,42.6 C117.8,36.75 122.54,32 128.4,32 C134.25,32 139,36.74 139,42.6" fill="#0088CC"/>
    <path d="M126,65.3 C126,69.2 122.84,72.36 118.94,72.36 C115.04,72.36 111.88,69.2 111.88,65.3 C111.88,61.4 115.04,58.24 118.94,58.24 C122.84,58.24 126,61.4 126,65.3" fill="#0088CC"/>
    <path d="M319,71.2 C312.36,71.2 306.3,73.9 301.7,78.57 C297.09,83.06 294.32,89.57 294.32,96.77 C294.32,103.6 297.08,110.07 301.7,114.57 C306.31,119.24 312.4,121.94 319,121.94 C325.82,121.94 331.7,119.24 336.3,114.57 C340.91,110.08 343.68,103.57 343.68,96.77 C343.68,89.58 340.91,83.07 336.3,78.57 C331.69,73.9 325.8,71.2 319,71.2 M363.8,131.8 C363.8,137.01 359.38,141.51 353.84,141.51 C348.86,141.51 344.99,138.09 344.07,133.78 C337.06,138.45 328.17,141.51 318.97,141.51 C294.07,141.51 274.17,121.01 274.17,96.71 C274.17,72.11 294.07,51.61 318.97,51.61 C328.01,51.61 336.87,54.49 343.67,59.16 L343.67,25.36 C343.67,20.15 348.09,15.65 353.77,15.65 C359.3,15.65 363.73,20.14 363.73,25.36 L363.73,96.56 L363.73,96.74 L363.73,131.74 z" fill="#4D4C4E"/>
    <path d="M235,23.5 C235,27.68 231.62,31.06 227.44,31.06 C223.26,31.06 219.88,27.68 219.88,23.5 C219.88,19.32 223.26,15.94 227.44,15.94 C231.62,15.94 235,19.32 235,23.5" fill="#0088CC"/>
    <path d="M219,41.1 C219,48.9 212.68,55.2 204.9,55.2 C197.1,55.2 190.8,48.88 190.8,41.1 C190.8,33.31 197.12,27 204.9,27 C212.69,27 219,33.32 219,41.1" fill="#0088CC"/>
    <path d="M148,102 C148,107.57 143.49,112.1 137.9,112.1 C132.33,112.1 127.8,107.59 127.8,102 C127.8,96.43 132.31,91.9 137.9,91.9 C143.47,91.9 148,96.41 148,102" fill="#0088CC"/>
    <path d="M139,128 C139,133.01 134.94,137.07 129.93,137.07 C124.92,137.07 120.86,133.01 120.86,128 C120.86,122.99 124.92,118.93 129.93,118.93 C134.94,118.93 139,122.99 139,128" fill="#0088CC"/>
    <path d="M213,116 C213,121.01 208.94,125.07 203.93,125.07 C198.92,125.07 194.86,121.01 194.86,116 C194.86,110.99 198.92,106.93 203.93,106.93 C208.94,106.93 213,110.99 213,116" fill="#0088CC"/>
    <path d="M227,141 C227,145.45 223.39,149.06 218.94,149.06 C214.49,149.06 210.88,145.45 210.88,141 C210.88,136.55 214.49,132.94 218.94,132.94 C223.39,132.94 227,136.55 227,141" fill="#0088CC"/>
    <path d="M98.6,24.5 C98.6,27.28 96.34,29.54 93.56,29.54 C90.78,29.54 88.52,27.28 88.52,24.5 C88.52,21.72 90.78,19.46 93.56,19.46 C96.34,19.46 98.6,21.72 98.6,24.5" fill="#0088CC"/>
    <path d="M96.8,10.9 C96.8,13.68 94.54,15.94 91.76,15.94 C88.98,15.94 86.72,13.68 86.72,10.9 C86.72,8.12 88.98,5.86 91.76,5.86 C94.54,5.86 96.8,8.12 96.8,10.9" fill="#0088CC"/>
    <path d="M113,124 C113,127.34 110.29,130.05 106.95,130.05 C103.61,130.05 100.9,127.34 100.9,124 C100.9,120.66 103.61,117.95 106.95,117.95 C110.29,117.95 113,120.66 113,124" fill="#0088CC"/>
    <path d="M398.454,86.3 L450.654,86.3 C448.754,79.1 439.354,68.5 423.354,67.2 C407.654,68 399.954,78.9 398.454,86.3 M378.354,95.1 C378.539,70.7 398.054,50.2 423.354,50.2 C447.354,50.2 466.354,67.6 467.754,91.9 L467.754,92.798 C467.754,93.159 467.754,94.058 467.57,94.418 C467.018,98.728 463.15,101.608 457.98,101.608 L399.38,101.608 C400.302,105.738 402.33,110.418 405.65,113.508 C409.52,117.828 416.85,121.058 423.35,121.598 C429.99,122.138 437.95,120.518 442.55,117.108 C446.42,113.148 453.95,113.688 456.35,116.569 C458.75,119.089 460.59,124.479 456.35,128.269 C447.31,136.359 436.45,140.169 423.35,140.169 C398.05,139.988 378.55,119.669 378.35,95.269" fill="#4D4C4E"/>
  </g>
  <defs/>
</svg>
